<svg width="107.903809" height="16.875000" viewBox="0 0 107.904 16.875" fill="none" xmlns="http://www.w3.org/2000/svg" xmlns:xlink="http://www.w3.org/1999/xlink">
	<desc>
			Created with Pixso.
	</desc>
	<defs/>
	<path id="plantku" d="M30.4 13.29L37.39 13.29L38.59 16.7L41.47 16.7L35.49 0L32.32 0L26.35 16.7L29.21 16.7L30.4 13.29ZM56.23 16.7L58.96 16.7L58.96 0L56.23 0L56.23 12.43L48 0L45.26 0L45.26 16.7L48 16.7L48 4.24L56.23 16.7ZM11.53 6.14Q11.66 5.58 11.66 4.99Q11.66 3.99 11.32 3.12Q11.18 2.79 11 2.47Q10.92 2.33 10.83 2.2Q10.18 1.26 9.01 0.68Q7.68 0.02 5.75 0.02L0 0.02L0 16.7L2.73 16.7L2.73 9.93L5.75 9.93Q7.82 9.93 9.14 9.22Q10.4 8.55 11 7.5Q11.03 7.44 11.06 7.39Q11.38 6.79 11.53 6.14ZM23.85 14.49L18.21 14.49L18.21 0.02L15.48 0.02L15.48 16.7L23.85 16.7L23.85 14.49ZM74.54 2.25L74.54 0.02L62.9 0.02L62.9 2.25L67.37 2.25L67.37 16.7L70.1 16.7L70.1 2.25L74.54 2.25ZM81.24 9.24L87.69 16.7L91.27 16.7L83.9 8.37L91.15 0.02L87.72 0.02L81.24 7.63L81.24 0.02L78.5 0.02L78.5 16.7L81.24 16.7L81.24 9.24ZM97.6 10.65L97.6 0.02L94.87 0.02L94.87 10.61Q94.87 12.65 95.73 14.06Q96.2 14.83 96.86 15.39Q97.4 15.86 98.07 16.17Q98.1 16.18 98.12 16.2Q99.58 16.87 101.35 16.87Q103.07 16.87 104.51 16.23Q104.57 16.2 104.64 16.17Q105.32 15.85 105.87 15.39Q106.53 14.83 107.01 14.06Q107.9 12.65 107.9 10.61L107.9 0.02L105.16 0.02L105.16 10.65Q105.16 12.45 104.27 13.4Q104.22 13.46 104.17 13.51Q104.09 13.58 104 13.65Q103.03 14.47 101.37 14.47Q99.77 14.47 98.8 13.68Q98.7 13.6 98.6 13.51Q98.55 13.46 98.5 13.4Q97.6 12.45 97.6 10.65ZM8.08 6.99Q7.31 7.7 5.75 7.7L2.73 7.7L2.73 2.25L5.75 2.25Q7.5 2.25 8.26 3.12Q8.85 3.79 8.85 4.99Q8.85 6.03 8.35 6.69Q8.23 6.85 8.08 6.99ZM33.91 3.31L36.62 11.06L31.17 11.06L33.91 3.31Z" fill="#156963" fill-opacity="1.000000" fill-rule="evenodd"/>
</svg>
